<mxfile host="app.diagrams.net" agent="Mozilla/5.0 (Windows NT 10.0; Win64; x64) AppleWebKit/537.36 (KHTML, like Gecko) Chrome/109.0.0.0 Safari/537.36" version="24.8.6">
  <diagram id="AlFm-hEhEajGzTMCzTWu" name="Trang-1">
    <mxGraphModel dx="666" dy="534" grid="0" gridSize="10" guides="1" tooltips="1" connect="1" arrows="1" fold="1" page="0" pageScale="1" pageWidth="827" pageHeight="1169" math="0" shadow="0">
      <root>
        <mxCell id="0" />
        <mxCell id="1" parent="0" />
        <mxCell id="s0wxERJIFIyE6TdGPSv7-1" style="edgeStyle=orthogonalEdgeStyle;rounded=0;orthogonalLoop=1;jettySize=auto;html=1;exitX=0.5;exitY=1;exitDx=0;exitDy=0;entryX=0.5;entryY=0;entryDx=0;entryDy=0;" edge="1" parent="1" source="s0wxERJIFIyE6TdGPSv7-2" target="s0wxERJIFIyE6TdGPSv7-4">
          <mxGeometry relative="1" as="geometry" />
        </mxCell>
        <mxCell id="s0wxERJIFIyE6TdGPSv7-2" value="Start" style="ellipse;whiteSpace=wrap;html=1;" vertex="1" parent="1">
          <mxGeometry x="330" y="70" width="120" height="80" as="geometry" />
        </mxCell>
        <mxCell id="s0wxERJIFIyE6TdGPSv7-3" style="edgeStyle=orthogonalEdgeStyle;rounded=0;orthogonalLoop=1;jettySize=auto;html=1;exitX=0.5;exitY=1;exitDx=0;exitDy=0;entryX=0.5;entryY=0;entryDx=0;entryDy=0;" edge="1" parent="1" source="s0wxERJIFIyE6TdGPSv7-4" target="s0wxERJIFIyE6TdGPSv7-5">
          <mxGeometry relative="1" as="geometry" />
        </mxCell>
        <mxCell id="s0wxERJIFIyE6TdGPSv7-4" value="Nhập n" style="rounded=0;whiteSpace=wrap;html=1;" vertex="1" parent="1">
          <mxGeometry x="330" y="200" width="120" height="50" as="geometry" />
        </mxCell>
        <mxCell id="s0wxERJIFIyE6TdGPSv7-5" value="n % 2 = 0?" style="shape=parallelogram;perimeter=parallelogramPerimeter;whiteSpace=wrap;html=1;fixedSize=1;" vertex="1" parent="1">
          <mxGeometry x="330" y="310" width="120" height="60" as="geometry" />
        </mxCell>
        <mxCell id="s0wxERJIFIyE6TdGPSv7-6" style="edgeStyle=orthogonalEdgeStyle;rounded=0;orthogonalLoop=1;jettySize=auto;html=1;exitX=0.5;exitY=1;exitDx=0;exitDy=0;entryX=0.5;entryY=0;entryDx=0;entryDy=0;" edge="1" parent="1" source="s0wxERJIFIyE6TdGPSv7-7" target="s0wxERJIFIyE6TdGPSv7-9">
          <mxGeometry relative="1" as="geometry" />
        </mxCell>
        <mxCell id="s0wxERJIFIyE6TdGPSv7-7" value="In &quot;Số chẵn&quot;" style="rounded=0;whiteSpace=wrap;html=1;" vertex="1" parent="1">
          <mxGeometry x="320" y="440" width="120" height="60" as="geometry" />
        </mxCell>
        <mxCell id="s0wxERJIFIyE6TdGPSv7-8" style="edgeStyle=orthogonalEdgeStyle;rounded=0;orthogonalLoop=1;jettySize=auto;html=1;exitX=0.5;exitY=1;exitDx=0;exitDy=0;entryX=0.5;entryY=0;entryDx=0;entryDy=0;" edge="1" parent="1" source="s0wxERJIFIyE6TdGPSv7-9">
          <mxGeometry relative="1" as="geometry">
            <mxPoint x="380" y="660" as="targetPoint" />
          </mxGeometry>
        </mxCell>
        <mxCell id="s0wxERJIFIyE6TdGPSv7-9" value="In &quot;Số lẻ&quot;" style="rounded=0;whiteSpace=wrap;html=1;" vertex="1" parent="1">
          <mxGeometry x="320" y="540" width="120" height="60" as="geometry" />
        </mxCell>
        <mxCell id="s0wxERJIFIyE6TdGPSv7-10" value="Yes" style="edgeStyle=orthogonalEdgeStyle;rounded=0;orthogonalLoop=1;jettySize=auto;html=1;exitX=0.25;exitY=1;exitDx=0;exitDy=0;entryX=0.333;entryY=0.033;entryDx=0;entryDy=0;entryPerimeter=0;" edge="1" parent="1" source="s0wxERJIFIyE6TdGPSv7-5" target="s0wxERJIFIyE6TdGPSv7-7">
          <mxGeometry relative="1" as="geometry" />
        </mxCell>
        <mxCell id="s0wxERJIFIyE6TdGPSv7-11" value="No" style="edgeStyle=orthogonalEdgeStyle;rounded=0;orthogonalLoop=1;jettySize=auto;html=1;exitX=0.5;exitY=1;exitDx=0;exitDy=0;entryX=0.583;entryY=-0.033;entryDx=0;entryDy=0;entryPerimeter=0;" edge="1" parent="1" source="s0wxERJIFIyE6TdGPSv7-5" target="s0wxERJIFIyE6TdGPSv7-7">
          <mxGeometry relative="1" as="geometry" />
        </mxCell>
        <mxCell id="s0wxERJIFIyE6TdGPSv7-13" value="END" style="ellipse;whiteSpace=wrap;html=1;" vertex="1" parent="1">
          <mxGeometry x="320" y="660" width="120" height="80" as="geometry" />
        </mxCell>
      </root>
    </mxGraphModel>
  </diagram>
</mxfile>
